<svg id="blog" xmlns="http://www.w3.org/2000/svg" width="12" height="12" viewBox="0 0 12 12">
  <path id="패스_68660" data-name="패스 68660" d="M12,9.6A2.4,2.4,0,0,1,9.6,12H2.4A2.4,2.4,0,0,1,0,9.6V2.4A2.4,2.4,0,0,1,2.4,0H9.6A2.4,2.4,0,0,1,12,2.4Z" fill="#0034c8"/>
  <path id="패스_68661" data-name="패스 68661" d="M26.928,19.451H19.9a1.626,1.626,0,0,0-1.623,1.629v3.864A1.626,1.626,0,0,0,19.9,26.572h2.421l.827,1.346a.3.3,0,0,0,.027.038.277.277,0,0,0,.479,0,.193.193,0,0,0,.028-.04l.826-1.345h2.422a1.626,1.626,0,0,0,1.623-1.629V21.08a1.626,1.626,0,0,0-1.623-1.629" transform="translate(-17.413 -18.533)" fill="#fff"/>
  <g id="그룹_22901" data-name="그룹 22901" transform="translate(-0.334 -0.151)">
    <path id="패스_68662" data-name="패스 68662" d="M43.239,64.382a.9.9,0,0,0-.579.268V63.57h-.682v2.839h.689v-.222a.653.653,0,0,0,.572.293,1,1,0,0,0,.96-1.059s-.035-1.038-.96-1.038m-.15,1.5a.438.438,0,1,1,.438-.438.438.438,0,0,1-.438.438" transform="translate(-39.998 -60.566)" fill="#0034c8"/>
    <path id="패스_68663" data-name="패스 68663" d="M89.733,62.327v.657s.311-.014.311.565V65.23H90.7V63.394s.028-1.067-.968-1.067" transform="translate(-85.313 -59.387)" fill="#0034c8"/>
    <path id="패스_68664" data-name="패스 68664" d="M119.194,79.641s-1.126,0-1.126,1.052a1.017,1.017,0,0,0,1.126,1.037s1.152,0,1.152-1.037a1.035,1.035,0,0,0-1.152-1.052m0,1.49a.438.438,0,1,1,.438-.438.438.438,0,0,1-.438.438" transform="translate(-112.199 -75.816)" fill="#0034c8"/>
    <path id="패스_68665" data-name="패스 68665" d="M170.92,79.706V79.9a.745.745,0,0,0-.572-.259.94.94,0,0,0-.964,1.044s-.011,1.011.938,1.011a.779.779,0,0,0,.6-.26v.159a.433.433,0,0,1-.434.5h-.164v.6h.265a.989.989,0,0,0,1-1.065V79.706Zm-.407,1.421a.438.438,0,1,1,.438-.438.438.438,0,0,1-.438.438" transform="translate(-160.894 -75.813)" fill="#0034c8"/>
  </g>
</svg>
