<svg id="sns_instagram" xmlns="http://www.w3.org/2000/svg" xmlns:xlink="http://www.w3.org/1999/xlink" width="12" height="12" viewBox="0 0 12 12">
  <defs>
    <clipPath id="clip-path">
      <rect id="사각형_13148" data-name="사각형 13148" width="8.25" height="8.25" rx="2" fill="#fff"/>
    </clipPath>
  </defs>
  <path id="Path_3" data-name="Path 3" d="M6,0A19.7,19.7,0,0,0,3.533.067,4.116,4.116,0,0,0,2.067.333,2.61,2.61,0,0,0,1,1,2.61,2.61,0,0,0,.333,2.067,3.038,3.038,0,0,0,.067,3.533,19.7,19.7,0,0,0,0,6,19.7,19.7,0,0,0,.067,8.467,4.116,4.116,0,0,0,.333,9.933,2.61,2.61,0,0,0,1,11a2.61,2.61,0,0,0,1.067.667,4.116,4.116,0,0,0,1.467.267A19.7,19.7,0,0,0,6,12a19.7,19.7,0,0,0,2.467-.067,4.116,4.116,0,0,0,1.467-.267,2.8,2.8,0,0,0,1.733-1.733,4.116,4.116,0,0,0,.267-1.467C11.933,7.8,12,7.6,12,6a19.7,19.7,0,0,0-.067-2.467,4.116,4.116,0,0,0-.267-1.467A2.61,2.61,0,0,0,11,1,2.61,2.61,0,0,0,9.933.333,4.116,4.116,0,0,0,8.467.067,19.7,19.7,0,0,0,6,0" fill="#0034c8"/>
  <g id="마스크_그룹_40" data-name="마스크 그룹 40" transform="translate(2.25 1.5)" clip-path="url(#clip-path)">
    <path id="Path_3-2" data-name="Path 3" d="M6,1.067a18.4,18.4,0,0,1,2.4.067,3.092,3.092,0,0,1,1.133.2,2.341,2.341,0,0,1,1.133,1.133,3.092,3.092,0,0,1,.2,1.133c0,.6.067.8.067,2.4a18.4,18.4,0,0,1-.067,2.4,3.092,3.092,0,0,1-.2,1.133,2.341,2.341,0,0,1-1.133,1.133,3.092,3.092,0,0,1-1.133.2c-.6,0-.8.067-2.4.067a18.4,18.4,0,0,1-2.4-.067,3.092,3.092,0,0,1-1.133-.2A2.341,2.341,0,0,1,1.333,9.533a3.092,3.092,0,0,1-.2-1.133c0-.6-.067-.8-.067-2.4a18.4,18.4,0,0,1,.067-2.4,3.092,3.092,0,0,1,.2-1.133A2.394,2.394,0,0,1,1.8,1.8a1.127,1.127,0,0,1,.667-.467,3.092,3.092,0,0,1,1.133-.2M6,0A19.7,19.7,0,0,0,3.533.067,4.116,4.116,0,0,0,2.067.333,2.61,2.61,0,0,0,1,1,2.61,2.61,0,0,0,.333,2.067,3.038,3.038,0,0,0,.067,3.533,19.7,19.7,0,0,0,0,6,19.7,19.7,0,0,0,.067,8.467,4.116,4.116,0,0,0,.333,9.933,2.61,2.61,0,0,0,1,11a2.61,2.61,0,0,0,1.067.667,4.116,4.116,0,0,0,1.467.267A19.7,19.7,0,0,0,6,12a19.7,19.7,0,0,0,2.467-.067,4.116,4.116,0,0,0,1.467-.267,2.8,2.8,0,0,0,1.733-1.733,4.116,4.116,0,0,0,.267-1.467C11.933,7.8,12,7.6,12,6a19.7,19.7,0,0,0-.067-2.467,4.116,4.116,0,0,0-.267-1.467A2.61,2.61,0,0,0,11,1,2.61,2.61,0,0,0,9.933.333,4.116,4.116,0,0,0,8.467.067,19.7,19.7,0,0,0,6,0M6,2.933A3.017,3.017,0,0,0,2.933,6,3.067,3.067,0,1,0,6,2.933M6,8A1.964,1.964,0,0,1,4,6,1.964,1.964,0,0,1,6,4,1.964,1.964,0,0,1,8,6,1.964,1.964,0,0,1,6,8M9.2,2.067a.733.733,0,1,0,.733.733A.74.74,0,0,0,9.2,2.067" transform="translate(-2.25 -1.5)" fill="#fff"/>
  </g>
</svg>
