<svg id="sns_youtube" xmlns="http://www.w3.org/2000/svg" width="15" height="12" viewBox="0 0 15 12">
  <path id="패스_68302" data-name="패스 68302" d="M3.006.2C4.465.066,6.187,0,7.5,0s3.006.066,4.494.2c1.722.165,2.6.495,2.831,2.44A27.754,27.754,0,0,1,15,6a27.376,27.376,0,0,1-.175,3.363c-.233,1.978-1.109,2.275-2.831,2.44A42.966,42.966,0,0,1,7.5,12a42.63,42.63,0,0,1-4.494-.2c-1.722-.165-2.626-.462-2.86-2.44C.058,8.506,0,7.253,0,6S.058,3.528.146,2.637C.379.692,1.284.363,3.006.2" transform="translate(0 0)" fill="#0034c8" fill-rule="evenodd"/>
  <path id="패스_68303" data-name="패스 68303" d="M110.384,56.538l4.016,2.538-4.016,2.571Z" transform="translate(-104.248 -52.788)" fill="#fff" fill-rule="evenodd"/>
</svg>
